<mxfile host="app.diagrams.net" modified="2023-11-03T00:37:33.403Z" agent="Mozilla/5.0 (Windows NT 10.0; Win64; x64) AppleWebKit/537.36 (KHTML, like Gecko) Chrome/119.0.0.0 Safari/537.36" etag="tgTL63YfvNPZ8WSuCBdC" version="22.0.8" type="github">
  <diagram id="XOnag8xoFiaOOmy9v_93" name="Page-1">
    <mxGraphModel dx="1562" dy="822" grid="1" gridSize="10" guides="1" tooltips="1" connect="1" arrows="1" fold="1" page="1" pageScale="1" pageWidth="2336" pageHeight="1654" math="0" shadow="0">
      <root>
        <mxCell id="_vKOgibNYJb6RkX7hGH7-0" />
        <mxCell id="_vKOgibNYJb6RkX7hGH7-1" parent="_vKOgibNYJb6RkX7hGH7-0" />
        <mxCell id="_vKOgibNYJb6RkX7hGH7-7" value="Larry" style="shape=umlActor;verticalLabelPosition=bottom;verticalAlign=top;html=1;fontFamily=Helvetica;fontSize=12;align=center;strokeColor=#82b366;strokeWidth=1;fillColor=#d5e8d4;" parent="_vKOgibNYJb6RkX7hGH7-1" vertex="1">
          <mxGeometry x="810" y="730" width="30" height="60" as="geometry" />
        </mxCell>
        <mxCell id="htrlCkjqB3i-QHUhcu3j-1" value="" style="rounded=0;orthogonalLoop=1;jettySize=auto;html=1;" edge="1" parent="_vKOgibNYJb6RkX7hGH7-1" source="_vKOgibNYJb6RkX7hGH7-8" target="htrlCkjqB3i-QHUhcu3j-0">
          <mxGeometry relative="1" as="geometry" />
        </mxCell>
        <mxCell id="htrlCkjqB3i-QHUhcu3j-9" value="" style="edgeStyle=orthogonalEdgeStyle;rounded=0;orthogonalLoop=1;jettySize=auto;html=1;" edge="1" parent="_vKOgibNYJb6RkX7hGH7-1" source="_vKOgibNYJb6RkX7hGH7-8" target="_vKOgibNYJb6RkX7hGH7-14">
          <mxGeometry relative="1" as="geometry" />
        </mxCell>
        <mxCell id="_vKOgibNYJb6RkX7hGH7-8" value="Open App" style="ellipse;whiteSpace=wrap;html=1;rounded=1;strokeWidth=1;fontSize=12;fillColor=#d5e8d4;strokeColor=#82b366;" parent="_vKOgibNYJb6RkX7hGH7-1" vertex="1">
          <mxGeometry x="880" y="765" width="120" height="50" as="geometry" />
        </mxCell>
        <mxCell id="_vKOgibNYJb6RkX7hGH7-10" value="Update delivery address" style="ellipse;whiteSpace=wrap;html=1;rounded=1;strokeWidth=1;fontSize=12;fillColor=#d5e8d4;strokeColor=#82b366;" parent="_vKOgibNYJb6RkX7hGH7-1" vertex="1">
          <mxGeometry x="1250" y="735" width="120" height="50" as="geometry" />
        </mxCell>
        <mxCell id="_vKOgibNYJb6RkX7hGH7-77" style="edgeStyle=none;rounded=0;jumpStyle=arc;orthogonalLoop=1;jettySize=auto;html=1;dashed=1;dashPattern=1 4;fontSize=12;fontColor=#000000;" parent="_vKOgibNYJb6RkX7hGH7-1" source="_vKOgibNYJb6RkX7hGH7-12" target="_vKOgibNYJb6RkX7hGH7-10" edge="1">
          <mxGeometry relative="1" as="geometry" />
        </mxCell>
        <mxCell id="_vKOgibNYJb6RkX7hGH7-78" value="extends" style="edgeLabel;html=1;align=center;verticalAlign=middle;resizable=0;points=[];" parent="_vKOgibNYJb6RkX7hGH7-77" vertex="1" connectable="0">
          <mxGeometry x="-0.0124" relative="1" as="geometry">
            <mxPoint as="offset" />
          </mxGeometry>
        </mxCell>
        <mxCell id="_vKOgibNYJb6RkX7hGH7-12" value="Delete delivery address" style="ellipse;whiteSpace=wrap;html=1;rounded=1;strokeWidth=1;fontSize=12;fillColor=#d5e8d4;strokeColor=#82b366;" parent="_vKOgibNYJb6RkX7hGH7-1" vertex="1">
          <mxGeometry x="1390" y="790" width="120" height="50" as="geometry" />
        </mxCell>
        <mxCell id="htrlCkjqB3i-QHUhcu3j-10" style="edgeStyle=orthogonalEdgeStyle;rounded=0;orthogonalLoop=1;jettySize=auto;html=1;elbow=vertical;curved=1;" edge="1" parent="_vKOgibNYJb6RkX7hGH7-1" source="_vKOgibNYJb6RkX7hGH7-14">
          <mxGeometry relative="1" as="geometry">
            <mxPoint x="1230" y="640" as="targetPoint" />
          </mxGeometry>
        </mxCell>
        <mxCell id="_vKOgibNYJb6RkX7hGH7-14" value="Scan Wifi" style="ellipse;whiteSpace=wrap;html=1;rounded=1;strokeWidth=1;fontSize=12;fillColor=#d5e8d4;strokeColor=#82b366;" parent="_vKOgibNYJb6RkX7hGH7-1" vertex="1">
          <mxGeometry x="1100" y="765" width="120" height="50" as="geometry" />
        </mxCell>
        <mxCell id="_vKOgibNYJb6RkX7hGH7-56" style="edgeStyle=none;rounded=0;orthogonalLoop=1;jettySize=auto;html=1;fontSize=12;fontColor=#000000;dashed=1;dashPattern=1 4;startArrow=classic;startFill=1;endArrow=none;endFill=0;" parent="_vKOgibNYJb6RkX7hGH7-1" source="_vKOgibNYJb6RkX7hGH7-17" target="_vKOgibNYJb6RkX7hGH7-14" edge="1">
          <mxGeometry relative="1" as="geometry" />
        </mxCell>
        <mxCell id="_vKOgibNYJb6RkX7hGH7-57" value="precedes" style="edgeLabel;html=1;align=center;verticalAlign=middle;resizable=0;points=[];" parent="_vKOgibNYJb6RkX7hGH7-56" vertex="1" connectable="0">
          <mxGeometry x="-0.135" y="-2" relative="1" as="geometry">
            <mxPoint as="offset" />
          </mxGeometry>
        </mxCell>
        <mxCell id="_vKOgibNYJb6RkX7hGH7-107" style="edgeStyle=none;rounded=0;jumpStyle=arc;orthogonalLoop=1;jettySize=auto;html=1;dashed=1;dashPattern=1 4;fontSize=12;fontColor=#000000;" parent="_vKOgibNYJb6RkX7hGH7-1" source="_vKOgibNYJb6RkX7hGH7-17" target="_vKOgibNYJb6RkX7hGH7-18" edge="1">
          <mxGeometry relative="1" as="geometry" />
        </mxCell>
        <mxCell id="_vKOgibNYJb6RkX7hGH7-108" value="precedes" style="edgeLabel;html=1;align=center;verticalAlign=middle;resizable=0;points=[];fontSize=12;" parent="_vKOgibNYJb6RkX7hGH7-107" vertex="1" connectable="0">
          <mxGeometry x="-0.6637" y="-1" relative="1" as="geometry">
            <mxPoint as="offset" />
          </mxGeometry>
        </mxCell>
        <mxCell id="_vKOgibNYJb6RkX7hGH7-17" value="Enter payment details" style="ellipse;whiteSpace=wrap;html=1;rounded=1;strokeWidth=1;fontSize=12;fillColor=#d5e8d4;strokeColor=#82b366;" parent="_vKOgibNYJb6RkX7hGH7-1" vertex="1">
          <mxGeometry x="1230" y="852" width="120" height="50" as="geometry" />
        </mxCell>
        <mxCell id="_vKOgibNYJb6RkX7hGH7-18" value="Verify credit card details" style="ellipse;whiteSpace=wrap;html=1;rounded=1;strokeWidth=1;fontSize=12;fillColor=#dae8fc;strokeColor=#6c8ebf;" parent="_vKOgibNYJb6RkX7hGH7-1" vertex="1">
          <mxGeometry x="1530" y="835" width="120" height="50" as="geometry" />
        </mxCell>
        <mxCell id="_vKOgibNYJb6RkX7hGH7-111" style="edgeStyle=none;rounded=0;jumpStyle=arc;orthogonalLoop=1;jettySize=auto;html=1;dashed=1;dashPattern=1 4;startArrow=none;startFill=0;endArrow=classic;endFill=1;fontSize=12;fontColor=#000000;" parent="_vKOgibNYJb6RkX7hGH7-1" source="_vKOgibNYJb6RkX7hGH7-27" target="_vKOgibNYJb6RkX7hGH7-29" edge="1">
          <mxGeometry relative="1" as="geometry" />
        </mxCell>
        <mxCell id="_vKOgibNYJb6RkX7hGH7-112" value="precedes" style="edgeLabel;html=1;align=center;verticalAlign=middle;resizable=0;points=[];fontSize=12;" parent="_vKOgibNYJb6RkX7hGH7-111" vertex="1" connectable="0">
          <mxGeometry x="-0.0258" y="3" relative="1" as="geometry">
            <mxPoint as="offset" />
          </mxGeometry>
        </mxCell>
        <mxCell id="_vKOgibNYJb6RkX7hGH7-27" value="Verify email is unique" style="ellipse;whiteSpace=wrap;html=1;rounded=1;strokeWidth=1;fontSize=12;fillColor=#dae8fc;strokeColor=#6c8ebf;" parent="_vKOgibNYJb6RkX7hGH7-1" vertex="1">
          <mxGeometry x="1520" y="580" width="120" height="50" as="geometry" />
        </mxCell>
        <mxCell id="_vKOgibNYJb6RkX7hGH7-29" value="Send confirmation link via email" style="ellipse;whiteSpace=wrap;html=1;rounded=1;strokeWidth=1;fontSize=12;fillColor=#dae8fc;strokeColor=#6c8ebf;" parent="_vKOgibNYJb6RkX7hGH7-1" vertex="1">
          <mxGeometry x="1530" y="500" width="120" height="50" as="geometry" />
        </mxCell>
        <mxCell id="_vKOgibNYJb6RkX7hGH7-35" value="Customer database" style="shape=cylinder3;whiteSpace=wrap;html=1;boundedLbl=1;backgroundOutline=1;size=15;rounded=1;strokeWidth=1;fillColor=#dae8fc;strokeColor=#6c8ebf;" parent="_vKOgibNYJb6RkX7hGH7-1" vertex="1">
          <mxGeometry x="1785" y="595" width="60" height="80" as="geometry" />
        </mxCell>
        <mxCell id="_vKOgibNYJb6RkX7hGH7-36" style="edgeStyle=none;rounded=0;orthogonalLoop=1;jettySize=auto;html=1;exitX=0;exitY=1;exitDx=0;exitDy=-15;exitPerimeter=0;dashed=1;dashPattern=1 4;fontSize=12;fontColor=#000000;" parent="_vKOgibNYJb6RkX7hGH7-1" source="_vKOgibNYJb6RkX7hGH7-35" target="_vKOgibNYJb6RkX7hGH7-35" edge="1">
          <mxGeometry relative="1" as="geometry" />
        </mxCell>
        <mxCell id="_vKOgibNYJb6RkX7hGH7-37" value="System" style="shape=umlActor;verticalLabelPosition=bottom;verticalAlign=top;html=1;outlineConnect=0;rounded=1;strokeWidth=1;fillColor=#dae8fc;strokeColor=#6c8ebf;" parent="_vKOgibNYJb6RkX7hGH7-1" vertex="1">
          <mxGeometry x="1735" y="705" width="30" height="60" as="geometry" />
        </mxCell>
        <mxCell id="_vKOgibNYJb6RkX7hGH7-96" style="edgeStyle=none;rounded=0;jumpStyle=arc;orthogonalLoop=1;jettySize=auto;html=1;dashed=1;dashPattern=1 4;fontSize=12;fontColor=#000000;" parent="_vKOgibNYJb6RkX7hGH7-1" target="_vKOgibNYJb6RkX7hGH7-86" edge="1">
          <mxGeometry relative="1" as="geometry">
            <Array as="points">
              <mxPoint x="1110" y="980" />
              <mxPoint x="1490" y="980" />
              <mxPoint x="1550" y="740" />
              <mxPoint x="1560" y="720" />
            </Array>
            <mxPoint x="1032.8671564818187" y="930.9154632157029" as="sourcePoint" />
          </mxGeometry>
        </mxCell>
        <mxCell id="_vKOgibNYJb6RkX7hGH7-97" value="precedes" style="edgeLabel;html=1;align=center;verticalAlign=middle;resizable=0;points=[];fontSize=12;" parent="_vKOgibNYJb6RkX7hGH7-96" vertex="1" connectable="0">
          <mxGeometry x="-0.8699" y="3" relative="1" as="geometry">
            <mxPoint as="offset" />
          </mxGeometry>
        </mxCell>
        <mxCell id="_vKOgibNYJb6RkX7hGH7-50" value="Third-party payment &lt;br&gt;verification service" style="shape=umlActor;verticalLabelPosition=bottom;verticalAlign=top;html=1;outlineConnect=0;rounded=1;strokeWidth=1;fillColor=#f8cecc;strokeColor=#b85450;" parent="_vKOgibNYJb6RkX7hGH7-1" vertex="1">
          <mxGeometry x="1735" y="830" width="30" height="60" as="geometry" />
        </mxCell>
        <mxCell id="_vKOgibNYJb6RkX7hGH7-88" style="edgeStyle=none;rounded=0;jumpStyle=arc;orthogonalLoop=1;jettySize=auto;html=1;fontSize=12;fontColor=#000000;dashed=1;dashPattern=1 4;" parent="_vKOgibNYJb6RkX7hGH7-1" source="_vKOgibNYJb6RkX7hGH7-27" target="_vKOgibNYJb6RkX7hGH7-86" edge="1">
          <mxGeometry relative="1" as="geometry" />
        </mxCell>
        <mxCell id="_vKOgibNYJb6RkX7hGH7-89" value="includes" style="edgeLabel;html=1;align=center;verticalAlign=middle;resizable=0;points=[];" parent="_vKOgibNYJb6RkX7hGH7-88" vertex="1" connectable="0">
          <mxGeometry x="-0.1916" y="1" relative="1" as="geometry">
            <mxPoint x="-1" as="offset" />
          </mxGeometry>
        </mxCell>
        <mxCell id="_vKOgibNYJb6RkX7hGH7-58" value="Verify valid address" style="ellipse;whiteSpace=wrap;html=1;rounded=1;strokeWidth=1;fontSize=12;fillColor=#dae8fc;strokeColor=#6c8ebf;" parent="_vKOgibNYJb6RkX7hGH7-1" vertex="1">
          <mxGeometry x="1550" y="750" width="120" height="50" as="geometry" />
        </mxCell>
        <mxCell id="_vKOgibNYJb6RkX7hGH7-60" value="MAP API" style="shape=umlActor;verticalLabelPosition=bottom;verticalAlign=top;html=1;outlineConnect=0;rounded=1;strokeWidth=1;fillColor=#f8cecc;strokeColor=#b85450;" parent="_vKOgibNYJb6RkX7hGH7-1" vertex="1">
          <mxGeometry x="1800" y="790" width="30" height="60" as="geometry" />
        </mxCell>
        <mxCell id="_vKOgibNYJb6RkX7hGH7-86" value="Check for existing account" style="ellipse;whiteSpace=wrap;html=1;rounded=1;strokeWidth=1;fontSize=12;fillColor=#dae8fc;strokeColor=#6c8ebf;" parent="_vKOgibNYJb6RkX7hGH7-1" vertex="1">
          <mxGeometry x="1520" y="660" width="120" height="50" as="geometry" />
        </mxCell>
        <mxCell id="_vKOgibNYJb6RkX7hGH7-100" value="Update customer database" style="ellipse;whiteSpace=wrap;html=1;rounded=1;strokeWidth=1;fontSize=12;fillColor=#dae8fc;strokeColor=#6c8ebf;" parent="_vKOgibNYJb6RkX7hGH7-1" vertex="1">
          <mxGeometry x="1590" y="440" width="120" height="50" as="geometry" />
        </mxCell>
        <mxCell id="_vKOgibNYJb6RkX7hGH7-24" style="edgeStyle=none;rounded=0;orthogonalLoop=1;jettySize=auto;html=1;fontSize=12;fontColor=#000000;" parent="_vKOgibNYJb6RkX7hGH7-1" source="_vKOgibNYJb6RkX7hGH7-7" target="_vKOgibNYJb6RkX7hGH7-8" edge="1">
          <mxGeometry relative="1" as="geometry" />
        </mxCell>
        <mxCell id="_vKOgibNYJb6RkX7hGH7-83" style="edgeStyle=none;rounded=0;jumpStyle=arc;orthogonalLoop=1;jettySize=auto;html=1;fontSize=12;fontColor=#000000;" parent="_vKOgibNYJb6RkX7hGH7-1" source="_vKOgibNYJb6RkX7hGH7-8" target="_vKOgibNYJb6RkX7hGH7-37" edge="1">
          <mxGeometry relative="1" as="geometry">
            <Array as="points">
              <mxPoint x="1230" y="930" />
              <mxPoint x="1850" y="930" />
              <mxPoint x="1890" y="800" />
            </Array>
          </mxGeometry>
        </mxCell>
        <mxCell id="_vKOgibNYJb6RkX7hGH7-51" style="edgeStyle=none;rounded=0;orthogonalLoop=1;jettySize=auto;html=1;fontSize=12;fontColor=#000000;" parent="_vKOgibNYJb6RkX7hGH7-1" source="_vKOgibNYJb6RkX7hGH7-18" target="_vKOgibNYJb6RkX7hGH7-50" edge="1">
          <mxGeometry relative="1" as="geometry" />
        </mxCell>
        <mxCell id="_vKOgibNYJb6RkX7hGH7-84" style="edgeStyle=none;rounded=0;jumpStyle=arc;orthogonalLoop=1;jettySize=auto;html=1;fontSize=12;fontColor=#000000;" parent="_vKOgibNYJb6RkX7hGH7-1" source="_vKOgibNYJb6RkX7hGH7-29" target="_vKOgibNYJb6RkX7hGH7-7" edge="1">
          <mxGeometry relative="1" as="geometry">
            <Array as="points">
              <mxPoint x="970" y="490" />
              <mxPoint x="890" y="610" />
            </Array>
          </mxGeometry>
        </mxCell>
        <mxCell id="_vKOgibNYJb6RkX7hGH7-52" style="edgeStyle=none;rounded=0;orthogonalLoop=1;jettySize=auto;html=1;fontSize=12;fontColor=#000000;" parent="_vKOgibNYJb6RkX7hGH7-1" source="_vKOgibNYJb6RkX7hGH7-37" target="_vKOgibNYJb6RkX7hGH7-18" edge="1">
          <mxGeometry relative="1" as="geometry" />
        </mxCell>
        <mxCell id="_vKOgibNYJb6RkX7hGH7-53" style="edgeStyle=none;rounded=0;orthogonalLoop=1;jettySize=auto;html=1;fontSize=12;fontColor=#000000;" parent="_vKOgibNYJb6RkX7hGH7-1" source="_vKOgibNYJb6RkX7hGH7-37" target="_vKOgibNYJb6RkX7hGH7-27" edge="1">
          <mxGeometry relative="1" as="geometry" />
        </mxCell>
        <mxCell id="_vKOgibNYJb6RkX7hGH7-54" style="edgeStyle=none;rounded=0;orthogonalLoop=1;jettySize=auto;html=1;fontSize=12;fontColor=#000000;" parent="_vKOgibNYJb6RkX7hGH7-1" source="_vKOgibNYJb6RkX7hGH7-37" target="_vKOgibNYJb6RkX7hGH7-35" edge="1">
          <mxGeometry relative="1" as="geometry" />
        </mxCell>
        <mxCell id="_vKOgibNYJb6RkX7hGH7-55" style="edgeStyle=none;rounded=0;orthogonalLoop=1;jettySize=auto;html=1;fontSize=12;fontColor=#000000;" parent="_vKOgibNYJb6RkX7hGH7-1" source="_vKOgibNYJb6RkX7hGH7-37" target="_vKOgibNYJb6RkX7hGH7-29" edge="1">
          <mxGeometry relative="1" as="geometry" />
        </mxCell>
        <mxCell id="_vKOgibNYJb6RkX7hGH7-59" style="edgeStyle=none;rounded=0;orthogonalLoop=1;jettySize=auto;html=1;fontSize=12;fontColor=#000000;" parent="_vKOgibNYJb6RkX7hGH7-1" source="_vKOgibNYJb6RkX7hGH7-37" target="_vKOgibNYJb6RkX7hGH7-58" edge="1">
          <mxGeometry relative="1" as="geometry" />
        </mxCell>
        <mxCell id="_vKOgibNYJb6RkX7hGH7-87" style="edgeStyle=none;rounded=0;jumpStyle=arc;orthogonalLoop=1;jettySize=auto;html=1;fontSize=12;fontColor=#000000;" parent="_vKOgibNYJb6RkX7hGH7-1" source="_vKOgibNYJb6RkX7hGH7-37" target="_vKOgibNYJb6RkX7hGH7-86" edge="1">
          <mxGeometry relative="1" as="geometry" />
        </mxCell>
        <mxCell id="_vKOgibNYJb6RkX7hGH7-101" style="edgeStyle=none;rounded=0;jumpStyle=arc;orthogonalLoop=1;jettySize=auto;html=1;fontSize=12;fontColor=#000000;" parent="_vKOgibNYJb6RkX7hGH7-1" source="_vKOgibNYJb6RkX7hGH7-37" target="_vKOgibNYJb6RkX7hGH7-100" edge="1">
          <mxGeometry relative="1" as="geometry" />
        </mxCell>
        <mxCell id="_vKOgibNYJb6RkX7hGH7-85" style="edgeStyle=none;rounded=0;jumpStyle=arc;orthogonalLoop=1;jettySize=auto;html=1;fontSize=12;fontColor=#000000;" parent="_vKOgibNYJb6RkX7hGH7-1" target="_vKOgibNYJb6RkX7hGH7-37" edge="1">
          <mxGeometry relative="1" as="geometry">
            <Array as="points">
              <mxPoint x="1130" y="950" />
              <mxPoint x="1870" y="950" />
              <mxPoint x="1910" y="780" />
              <mxPoint x="1800" y="710" />
            </Array>
            <mxPoint x="1048.265996017618" y="924.8510756977284" as="sourcePoint" />
          </mxGeometry>
        </mxCell>
        <mxCell id="_vKOgibNYJb6RkX7hGH7-118" style="edgeStyle=none;rounded=0;jumpStyle=arc;orthogonalLoop=1;jettySize=auto;html=1;startArrow=none;startFill=0;endArrow=classic;endFill=1;fontSize=12;fontColor=#000000;" parent="_vKOgibNYJb6RkX7hGH7-1" target="_vKOgibNYJb6RkX7hGH7-37" edge="1">
          <mxGeometry relative="1" as="geometry">
            <Array as="points">
              <mxPoint x="1220" y="940" />
              <mxPoint x="1860" y="940" />
              <mxPoint x="1900" y="790" />
              <mxPoint x="1810" y="735" />
            </Array>
            <mxPoint x="1027.4419842144548" y="839.5349482858023" as="sourcePoint" />
          </mxGeometry>
        </mxCell>
        <mxCell id="_vKOgibNYJb6RkX7hGH7-61" style="edgeStyle=none;rounded=0;orthogonalLoop=1;jettySize=auto;html=1;fontSize=12;fontColor=#000000;jumpStyle=arc;" parent="_vKOgibNYJb6RkX7hGH7-1" source="_vKOgibNYJb6RkX7hGH7-58" target="_vKOgibNYJb6RkX7hGH7-60" edge="1">
          <mxGeometry relative="1" as="geometry" />
        </mxCell>
        <mxCell id="_vKOgibNYJb6RkX7hGH7-119" value="Use Case - Larry Scans his house Wi-Fi range" style="text;html=1;strokeColor=none;fillColor=none;align=center;verticalAlign=middle;whiteSpace=wrap;rounded=0;fontSize=12;fontStyle=2" parent="_vKOgibNYJb6RkX7hGH7-1" vertex="1">
          <mxGeometry x="1160" y="1020" width="390" height="20" as="geometry" />
        </mxCell>
        <mxCell id="htrlCkjqB3i-QHUhcu3j-5" value="" style="rounded=0;orthogonalLoop=1;jettySize=auto;html=1;" edge="1" parent="_vKOgibNYJb6RkX7hGH7-1" source="htrlCkjqB3i-QHUhcu3j-0" target="htrlCkjqB3i-QHUhcu3j-4">
          <mxGeometry relative="1" as="geometry" />
        </mxCell>
        <mxCell id="htrlCkjqB3i-QHUhcu3j-0" value="Sign-in" style="ellipse;whiteSpace=wrap;html=1;rounded=1;strokeWidth=1;fontSize=12;fillColor=#d5e8d4;strokeColor=#82b366;" vertex="1" parent="_vKOgibNYJb6RkX7hGH7-1">
          <mxGeometry x="900" y="655" width="120" height="50" as="geometry" />
        </mxCell>
        <mxCell id="htrlCkjqB3i-QHUhcu3j-7" value="" style="edgeStyle=orthogonalEdgeStyle;rounded=0;orthogonalLoop=1;jettySize=auto;html=1;" edge="1" parent="_vKOgibNYJb6RkX7hGH7-1" source="htrlCkjqB3i-QHUhcu3j-4" target="htrlCkjqB3i-QHUhcu3j-6">
          <mxGeometry relative="1" as="geometry" />
        </mxCell>
        <mxCell id="htrlCkjqB3i-QHUhcu3j-4" value="Google OAuth" style="ellipse;whiteSpace=wrap;html=1;rounded=1;strokeWidth=1;fontSize=12;fillColor=#d5e8d4;strokeColor=#82b366;" vertex="1" parent="_vKOgibNYJb6RkX7hGH7-1">
          <mxGeometry x="1010" y="580" width="120" height="50" as="geometry" />
        </mxCell>
        <mxCell id="htrlCkjqB3i-QHUhcu3j-8" style="rounded=0;orthogonalLoop=1;jettySize=auto;html=1;entryX=1;entryY=0.5;entryDx=0;entryDy=0;" edge="1" parent="_vKOgibNYJb6RkX7hGH7-1" source="htrlCkjqB3i-QHUhcu3j-6" target="_vKOgibNYJb6RkX7hGH7-8">
          <mxGeometry relative="1" as="geometry" />
        </mxCell>
        <mxCell id="htrlCkjqB3i-QHUhcu3j-11" style="edgeStyle=orthogonalEdgeStyle;rounded=0;orthogonalLoop=1;jettySize=auto;html=1;entryX=0.5;entryY=0;entryDx=0;entryDy=0;" edge="1" parent="_vKOgibNYJb6RkX7hGH7-1" source="htrlCkjqB3i-QHUhcu3j-6" target="htrlCkjqB3i-QHUhcu3j-4">
          <mxGeometry relative="1" as="geometry">
            <Array as="points">
              <mxPoint x="1228" y="560" />
              <mxPoint x="1070" y="560" />
            </Array>
          </mxGeometry>
        </mxCell>
        <mxCell id="htrlCkjqB3i-QHUhcu3j-6" value="Google Map API" style="ellipse;whiteSpace=wrap;html=1;rounded=1;strokeWidth=1;fontSize=12;fillColor=#d5e8d4;strokeColor=#82b366;" vertex="1" parent="_vKOgibNYJb6RkX7hGH7-1">
          <mxGeometry x="1168" y="580" width="120" height="50" as="geometry" />
        </mxCell>
      </root>
    </mxGraphModel>
  </diagram>
</mxfile>
